<svg xmlns="http://www.w3.org/2000/svg" width="255" height="116" viewBox="0 0 255 116" fill="none"><path fill="#fff" fill-rule="evenodd" d="M10.594 105.353h233.658v-94.76H10.594v94.76zM0 115.946h254.846V0H0v115.946zm45.738-61.327h16.069v9.829H45.738V78.81H35.084V37.136h29.018v10.009H45.738v7.474zM117.72 53.5h-16.893v-6.476h18.363v-9.885H90.172v41.67h29.017v-9.945h-18.363v-6.24h16.893V53.5zm28.246 25.31h10.537V37.14h-10.537v41.67zm54.974-41.672h-16.658v41.67h10.537V66.624h6.18c10.066 0 15.184-7.357 15.184-14.771 0-7.358-5.063-14.715-15.243-14.715zm0 9.828c6.36-.06 6.36 10.358 0 10.302h-6.121V46.966h6.121z" clip-rule="evenodd"/></svg>
