<svg width="118" height="59" viewBox="0 0 118 59" fill="none" xmlns="http://www.w3.org/2000/svg">
<path fill-rule="evenodd" clip-rule="evenodd" d="M9.28854 10.8312C8.87733 12.999 6.97278 14.6381 4.68538 14.6381C2.09772 14.6381 0 12.5404 0 9.95274C0 7.36507 2.09772 5.26736 4.68538 5.26736C6.97278 5.26736 8.87733 6.90649 9.28854 9.07423H24.4542H25.3327V9.95274V19.4448H40.6582V21.2018H24.4542H23.5757V20.3233V10.8312H9.28854ZM14.5212 30.0457L19.5932 35.1177L23.7868 30.9242L32.3259 30.9242V47.6397H16.4183C16.0071 45.4719 14.1025 43.8328 11.8151 43.8328C9.22746 43.8328 7.12974 45.9305 7.12974 48.5182C7.12974 51.1058 9.22746 53.2036 11.8151 53.2036C14.1025 53.2036 16.0071 51.5644 16.4183 49.3967H33.2044C33.6895 49.3967 34.0829 49.0034 34.0829 48.5182V30.9242L39.4386 30.9242C40.0976 38.8491 44.9499 45.5832 51.7707 48.9015V54.9997C51.7707 55.4849 52.164 55.8782 52.6492 55.8782C53.1344 55.8782 53.5277 55.4849 53.5277 54.9997V49.6633C55.9723 50.5984 58.626 51.1107 61.3994 51.1107C61.5389 51.1107 61.6782 51.1094 61.8171 51.1069V57.5924C61.8171 58.0776 62.2105 58.4709 62.6957 58.4709C63.1808 58.4709 63.5742 58.0776 63.5742 57.5924V51.0048C66.4234 50.7257 69.1134 49.904 71.5396 48.6444V53.7034C71.5396 54.1886 71.9329 54.5819 72.4181 54.5819C72.9033 54.5819 73.2966 54.1886 73.2966 53.7034V47.6266C76.283 45.7076 78.7758 43.0873 80.5425 39.9984L95.8455 39.9984V47.8039C93.6778 48.2151 92.0387 50.1197 92.0387 52.4071C92.0387 54.9948 94.1364 57.0925 96.724 57.0925C99.3117 57.0925 101.409 54.9948 101.409 52.4071C101.409 50.1197 99.7703 48.2151 97.6025 47.8039V39.1198C97.6025 38.6347 97.2092 38.2413 96.724 38.2413L81.4451 38.2413C82.7239 35.4497 83.4368 32.3448 83.4368 29.0733L83.4366 28.9797L108.734 28.9797L112.928 33.1733L118 28.1012L112.928 23.0291L108.734 27.2227H102.464V15.5281C104.631 15.1169 106.271 13.2124 106.271 10.925C106.271 8.3373 104.173 6.23958 101.585 6.23958C98.9975 6.23958 96.8998 8.3373 96.8998 10.925C96.8998 13.2124 98.5389 15.1169 100.707 15.5281V27.2227L83.3602 27.2227C82.7769 20.2078 78.908 14.1259 73.2966 10.5201V3.47113C73.2966 2.98594 72.9033 2.59262 72.4181 2.59262C71.9329 2.59262 71.5396 2.98594 71.5396 3.47113V9.50233C69.1134 8.24271 66.4234 7.421 63.5742 7.1419V0.878494C63.5742 0.393307 63.1808 -1.52588e-05 62.6957 -1.52588e-05C62.2105 -1.52588e-05 61.8171 0.393307 61.8171 0.878494V7.03983C61.6782 7.03724 61.5389 7.03595 61.3994 7.03595C58.7481 7.03595 56.2062 7.50413 53.8519 8.36233V3.47113C53.8519 2.98594 53.4585 2.59262 52.9733 2.59262C52.4882 2.59262 52.0948 2.98594 52.0948 3.47113V9.09074C44.5741 12.5986 39.362 20.2273 39.362 29.0733L39.3622 29.1671H33.2044L33.2007 29.1671L23.7868 29.1671L19.5932 24.9736L14.5212 30.0457ZM61.3994 47.5967C71.6296 47.5967 79.9227 39.3035 79.9227 29.0733C79.9227 18.8432 71.6296 10.55 61.3994 10.55C51.1692 10.55 42.876 18.8432 42.876 29.0733C42.876 39.3035 51.1692 47.5967 61.3994 47.5967ZM51.677 29.3975C51.677 34.588 55.8848 38.7958 61.0753 38.7958C66.2658 38.7958 70.4736 34.588 70.4736 29.3975C70.4736 24.207 66.2658 19.9992 61.0753 19.9992C55.8848 19.9992 51.677 24.207 51.677 29.3975Z" fill="white"/>
</svg>
